<?xml version="1.0" encoding="UTF-8"?>
<!DOCTYPE svg PUBLIC "-//W3C//DTD SVG 1.1//EN" "http://www.w3.org/Graphics/SVG/1.1/DTD/svg11.dtd">
<!-- Creator: CorelDRAW X6 -->
<svg xmlns="http://www.w3.org/2000/svg" xml:space="preserve" width="8.0432mm" height="6.0112mm" version="1.1" style="shape-rendering:geometricPrecision; text-rendering:geometricPrecision; image-rendering:optimizeQuality; fill-rule:evenodd; clip-rule:evenodd"
viewBox="0 0 804 601"
 xmlns:xlink="http://www.w3.org/1999/xlink">
 <defs>
  <style type="text/css">
   <![CDATA[
    .fil0 {fill:#8600C9}
   ]]>
  </style>
 </defs>
 <g id="Camada_x0020_1">
  <metadata id="CorelCorpID_0Corel-Layer"/>
  <path class="fil0" d="M106 95l-24 0c-45,0 -81,37 -81,81 0,102 0,204 0,307 0,12 10,22 22,22l81 0c12,0 22,-10 22,-22 0,-123 0,-246 0,-369l71 0c34,0 61,28 61,61l0 1 0 0 0 79 0 227c0,12 10,22 22,22l81 0c12,0 22,-10 22,-22l0 -270 0 -41c0,-93 -76,-169 -169,-169 -16,0 -31,0 -47,0 -33,0 -60,27 -60,60l0 33zm593 411l24 0c45,0 81,-37 81,-81 0,-102 0,-204 0,-307 0,-12 -10,-22 -22,-22l-81 0c-12,0 -22,10 -22,22 0,123 0,246 0,369l-71 0c-34,0 -61,-28 -61,-61l0 -1 0 0 0 -79 0 -227c0,-12 -10,-22 -22,-22l-81 0c-12,0 -22,10 -22,22l0 270 0 41c0,93 76,169 169,169 16,0 31,0 47,0 33,0 60,-27 60,-60l0 -33zm-107 74c-83,0 -150,-68 -150,-150l0 -41 0 -270c0,-1 1,-3 3,-3l81 0c1,0 3,1 3,3l0 227 0 79 0 1c0,44 36,80 80,80l71 0 0 33c0,23 -19,41 -41,41 -16,0 -31,0 -47,0zm107 -93l24 0c34,0 62,-28 62,-62 0,-102 0,-204 0,-307 0,-1 -1,-3 -3,-3l-81 0c-1,0 -3,1 -3,3 0,123 0,246 0,369zm-486 -466c83,0 150,68 150,150l0 41 0 270c0,1 -1,3 -3,3l-81 0c-2,0 -3,-1 -3,-3l0 -227 0 -79 0 -1c0,-44 -36,-80 -80,-80l-71 0 0 -33c0,-23 19,-41 41,-41 16,0 31,0 47,0zm-107 93l-24 0c-34,0 -62,28 -62,62 0,102 0,204 0,307 0,1 1,3 3,3l81 0c2,0 3,-1 3,-3 0,-123 0,-246 0,-369z"/>
 </g>
</svg>
